<?xml version="1.0" encoding="UTF-8" standalone="no"?>
<svg width="28px" height="30px" viewBox="0 0 28 30" version="1.1" xmlns="http://www.w3.org/2000/svg" xmlns:xlink="http://www.w3.org/1999/xlink">
    <!-- Generator: sketchtool 3.7.2 (28276) - http://www.bohemiancoding.com/sketch -->
    <title>BA23980B-805E-4BDF-8F66-04F76F4C7B06</title>
    <desc>Created with sketchtool.</desc>
    <defs></defs>
    <g id="Page-1" stroke="none" stroke-width="1" fill="none" fill-rule="evenodd">
        <g id="Venue-Detail" transform="translate(-639.000000, -290.000000)" fill="#7A22A3">
            <g id="Rectangle-1-+-Velvet-Revolver:-+-Rectangle-2-+-MUSIC-CONCERT-+-More-info" transform="translate(150.000000, 266.000000)">
                <g id="More-info" transform="translate(458.000000, 0.000000)">
                    <g id="alcohol-icon" transform="translate(31.000000, 24.000000)">
                        <path d="M3.12221429,16.4192143 C2.75057143,18.285 3.93942857,20.1142143 5.80321429,20.5164286 C7.68642857,20.9252143 9.54971429,19.7254286 9.95657143,17.8422143 L10.5297857,12.5852143 C8.64657143,11.5632857 9.33664286,15.799 6.08385714,15.097 C3.84971429,14.6134286 3.24071429,16.043 3.12221429,16.4192143 L3.12221429,16.4192143 Z" id="Shape"></path>
                        <path d="M27.3066429,22.7315714 C27.1593571,22.29 26.6804286,22.046 26.2397143,22.1964286 L23.8937143,22.9764286 L22.4183571,18.5389286 C23.6301429,17.9442143 24.6235,16.9972143 25.2388571,15.7682857 C25.9827143,14.2837857 26.1034286,12.5985 25.5530714,10.9537143 L21.6987143,2.04478571 L11.4497857,5.45492857 L12.1342857,8.24071429 L3.37492857,6.34707143 L0.4865,15.6913571 C0.135857143,17.3148571 0.437857143,18.9772857 1.33785714,20.3725714 C2.08171429,21.5272143 3.17171429,22.3611429 4.44057143,22.8205 L3.45185714,27.3913571 L1.039,26.8707143 C0.585142857,26.7793571 0.134642857,27.0617143 0.0361428571,27.5179286 C-0.0624285714,27.9737143 0.226857143,28.4220714 0.683071429,28.5208571 L3.91314286,29.2187143 C3.9155,29.2187143 3.91671429,29.2207857 3.91835714,29.2207857 C3.922,29.2219286 3.92628571,29.2207857 3.93,29.2219286 L7.16107143,29.9197857 C7.2215,29.9329286 7.28078571,29.9386429 7.34028571,29.9386429 C7.729,29.9386429 8.07857143,29.6684286 8.16407143,29.2727857 C8.26192857,28.8167143 7.973,28.3685 7.51678571,28.2695714 L5.10221429,27.7475 L6.08735714,23.1954286 C6.24907143,23.2085714 6.4105,23.2219286 6.57228571,23.2219286 C9.47257143,23.2219286 12.0239286,21.1605714 12.6487857,18.2532143 L13.3336429,13.1198571 L13.7832857,14.9482143 C14.6292857,17.4929286 16.9983571,19.2026429 19.6776429,19.2026429 C20.0624286,19.2026429 20.4432857,19.1563571 20.8204286,19.0850714 L22.2918571,23.5097143 L19.9504286,24.2879286 C19.5075,24.4349286 19.2679286,24.9129286 19.4149286,25.3545 C19.5328571,25.7084286 19.8623571,25.9326429 20.216,25.9326429 C20.304,25.9326429 20.3942857,25.9193571 20.4823571,25.8895 L26.7711429,23.7987143 C27.2143571,23.6512143 27.4539286,23.1731429 27.3066429,22.7315714 L27.3066429,22.7315714 Z M10.9878571,17.964 C10.4740714,20.3494286 8.01571429,21.9505 5.6065,21.4294286 L5.6065,21.4294286 L5.60514286,21.4294286 C4.42278571,21.1745714 3.411,20.4747857 2.75607143,19.4584286 C2.10135714,18.442 1.88042857,17.2311429 2.11764286,16.1192857 L4.53021429,8.32371429 L12.0536429,9.95028571 L10.9878571,17.964 L10.9878571,17.964 Z M15.4039286,14.4805 L13.4602857,6.56471429 L20.7649286,4.13464286 L23.9776429,11.5552857 C24.3599286,12.7034286 24.2706429,13.9312857 23.7304286,15.0124286 C23.1885,16.0935 22.2582857,16.8995714 21.1095714,17.2807857 C20.6452857,17.4368571 20.1627857,17.5147857 19.6780714,17.5147857 C17.7265,17.5147857 16.0017857,16.2697857 15.4039286,14.4805 L15.4039286,14.4805 Z" id="Shape"></path>
                        <path d="M23.0402143,12.0314286 C22.8776429,11.671 22.1216429,10.3145 19.9526429,11.0352857 C16.7924286,12.0863571 17.0209286,7.80021429 15.2610714,9.01921429 L16.397,14.1815714 C17.0057143,16.0088571 18.988,17.0025 20.8139286,16.394 C22.6247857,15.7912857 23.6094286,13.8444286 23.0402143,12.0314286 L23.0402143,12.0314286 Z" id="Shape"></path>
                        <path d="M8.49907143,1.90814286 C9.0245,1.87964286 9.42878571,1.42971429 9.4005,0.9035 C9.37214286,0.376428571 8.92142857,-0.0271428571 8.39607143,0.00142857143 C7.86842857,0.0299285714 7.46421429,0.479857143 7.49285714,1.00671429 C7.52164286,1.53307143 7.97221429,1.93664286 8.49907143,1.90814286 L8.49907143,1.90814286 Z" id="Shape"></path>
                        <path d="M12.189,3.5755 C12.7141429,3.547 13.1187143,3.09707143 13.0901429,2.57028571 C13.0615,2.04392857 12.6108571,1.64014286 12.0857143,1.66864286 C11.5583571,1.69728571 11.1540714,2.14707143 11.1824286,2.67335714 C11.2109286,3.20014286 11.6614286,3.60407143 12.189,3.5755 L12.189,3.5755 Z" id="Shape"></path>
                        <path d="M7.9675,4.377 C7.99592857,4.90392857 8.4465,5.30771429 8.97185714,5.279 C9.4995,5.25057143 9.90378571,4.80064286 9.87535714,4.27385714 C9.84664286,3.74757143 9.396,3.34378571 8.8685,3.37228571 C8.34328571,3.40078571 7.93921429,3.85071429 7.9675,4.377 L7.9675,4.377 Z" id="Shape"></path>
                    </g>
                </g>
            </g>
        </g>
    </g>
</svg>