<?xml version="1.0" encoding="UTF-8" standalone="no"?>
<svg width="37px" height="47px" viewBox="0 0 37 47" version="1.1" xmlns="http://www.w3.org/2000/svg" xmlns:xlink="http://www.w3.org/1999/xlink">
    <!-- Generator: sketchtool 3.7.2 (28276) - http://www.bohemiancoding.com/sketch -->
    <title>02C26A89-474F-4DF3-AE0F-20DFA0441EC6</title>
    <desc>Created with sketchtool.</desc>
    <defs></defs>
    <g id="Page-1" stroke="none" stroke-width="1" fill="none" fill-rule="evenodd">
        <g id="Profile" transform="translate(-205.000000, -1073.000000)" fill="#7A22A3">
            <g id="Features" transform="translate(159.000000, 994.000000)">
                <g transform="translate(41.000000, 78.000000)" id="REVIEW-SYSTEM-+-Group-+-It-was-a-humorously--Copy">
                    <g transform="translate(5.000000, 0.000000)">
                        <path d="M36.3983466,8.06816502 C36.3160107,7.51121811 35.8445462,7.09429457 35.2818306,7.08695252 C32.964365,7.05653546 29.5917421,6.7046415 25.8635541,5.19952132 C22.9718354,4.03213542 20.7582074,2.53068625 19.2016929,1.26628041 C18.7648409,0.911239864 18.1355224,0.911239864 17.6986704,1.26628041 C16.1421559,2.53068625 13.9285279,4.03213542 11.0368092,5.19952132 C7.30862124,6.7046415 3.93547384,7.05653546 1.61853273,7.08695252 C1.05581707,7.09429457 0.584352589,7.51121811 0.502016746,8.06816502 C-0.220126284,12.955348 -1.59413844,28.058993 8.38685368,40.0344005 C11.3294423,43.5648776 14.5908857,46.021842 17.4611027,47.7278197 C18.0715417,48.0907268 18.8277728,48.0907268 19.4382118,47.7278197 C22.3089532,46.0223665 25.5698721,43.565402 28.5124608,40.0344005 C38.4945017,28.058993 37.1204896,12.955348 36.3983466,8.06816502 L36.3983466,8.06816502 Z M30.5147426,18.046535 L19.0952332,33.4905365 L19.0212882,33.5901786 C18.1533531,34.7638577 16.4982453,35.0119141 15.3245662,34.1439789 C15.2044713,34.0553499 15.0843763,33.9473169 14.9842098,33.8434793 L8.88558863,27.4548472 C8.11257568,26.6445996 8.14194388,25.3613142 8.95219151,24.5877768 C9.6638459,23.9086372 10.740505,23.8499008 11.5161401,24.3942614 L16.4437044,27.8481713 L27.618304,15.65932 C28.3194697,14.8941735 29.5083574,14.8427792 30.2735038,15.5439449 C30.9872559,16.1984362 31.0743117,17.2840107 30.5147426,18.046535 L30.5147426,18.046535 Z" id="buyerprotection-icon"></path>
                    </g>
                </g>
            </g>
        </g>
    </g>
</svg>