<?xml version="1.0" encoding="UTF-8" standalone="no"?>
<svg width="30px" height="20px" viewBox="0 0 30 20" version="1.1" xmlns="http://www.w3.org/2000/svg" xmlns:xlink="http://www.w3.org/1999/xlink">
    <!-- Generator: sketchtool 3.7.2 (28276) - http://www.bohemiancoding.com/sketch -->
    <title>26BE1104-1229-43EE-9914-EB43C0D116F0</title>
    <desc>Created with sketchtool.</desc>
    <defs></defs>
    <g id="Page-1" stroke="none" stroke-width="1" fill="none" fill-rule="evenodd">
        <g id="Venue-Detail" transform="translate(-776.000000, -295.000000)" fill="#7A22A3">
            <g id="Rectangle-1-+-Velvet-Revolver:-+-Rectangle-2-+-MUSIC-CONCERT-+-More-info" transform="translate(150.000000, 266.000000)">
                <g id="More-info" transform="translate(458.000000, 0.000000)">
                    <path d="M176.622687,33.9339704 C176.622687,35.4356109 178.654925,35.2716768 178.654925,33.9430592 C178.654925,33.9430592 178.149793,30.6804878 181.297741,30.66232 C183.233443,30.6683682 185.407587,33.5206935 183.68244,35.3749392 C178.815744,40.3136912 173.264322,42.0741008 168.349311,46.9860606 C168.296064,47.0393074 168.245765,47.096544 168.203501,47.1592105 C168.164663,47.216534 168.13087,47.2796883 168.103256,47.341476 C167.968611,47.6539231 167.968611,47.9859447 168.094167,48.2801505 C168.129153,48.3564236 168.158568,48.4174193 168.194386,48.4715483 C168.24516,48.5421876 168.294688,48.5991903 168.349288,48.6537904 C168.402528,48.7070372 168.459768,48.7573302 168.522434,48.7996035 C168.579758,48.8384418 168.642912,48.8722277 168.7047,48.8998452 C168.806017,48.9440532 168.871534,48.9584351 168.941616,48.9726999 C169.022126,48.989775 169.096631,49 169.178558,49 L196.727657,49 C196.809584,49 196.884093,48.9897416 196.964603,48.9726999 C197.276138,48.9092749 197.54311,48.7274304 197.711883,48.4714748 C197.724814,48.4519604 197.727588,48.4277646 197.739183,48.4076855 C197.766516,48.36041 197.791411,48.3130576 197.812084,48.2618724 C197.829026,48.2202206 197.84568,48.1772389 197.857652,48.1342906 C197.864402,48.1095969 197.870718,48.0867143 197.875897,48.0613857 C197.892972,47.9809057 197.903197,47.90633 197.903197,47.8244432 C197.903197,47.7453766 197.891769,47.6652942 197.875897,47.5875007 C197.867677,47.547249 197.851638,47.5076455 197.839441,47.4690278 C197.829985,47.4391214 197.824004,47.4071432 197.812141,47.3778984 C197.791558,47.3269138 197.76649,47.2791904 197.73924,47.2320886 C197.727745,47.2122401 197.724504,47.1873961 197.71194,47.1682927 C197.660551,47.0965039 197.610254,47.0392707 197.557008,46.9860239 L187.449117,39.7663767 C186.987526,39.3047851 186.243006,39.3047817 185.781411,39.7663767 C185.319809,40.2279683 185.232656,41.0714166 185.781411,41.4249742 L193.875275,46.6397641 L172.03102,46.6397641 C176.186431,42.1245375 181.325108,41.3393315 185.380427,36.7590324 C188.085984,33.6164442 185.327224,29.0037259 181.407089,29.0037259 C181.24669,28.9996827 181.092206,28.9979117 180.942316,29.0037259 C176.295785,29.18405 176.622687,33.9339704 176.622687,33.9339704 Z" id="coatcheck-icon"></path>
                </g>
            </g>
        </g>
    </g>
</svg>