<?xml version="1.0" encoding="UTF-8" standalone="no"?>
<svg width="52px" height="47px" viewBox="0 0 52 47" version="1.1" xmlns="http://www.w3.org/2000/svg" xmlns:xlink="http://www.w3.org/1999/xlink">
    <!-- Generator: sketchtool 3.7.2 (28276) - http://www.bohemiancoding.com/sketch -->
    <title>F7B78A90-5FF3-4234-9B77-979D90E7A9B2</title>
    <desc>Created with sketchtool.</desc>
    <defs></defs>
    <g id="Symbols" stroke="none" stroke-width="1" fill="none" fill-rule="evenodd">
        <g id="Card-Elements-/-Badges-2x2" transform="translate(-154.000000, -80.000000)">
            <g id="Group-6-Copy" transform="translate(154.000000, 80.000000)">
                <g id="completed-sales">
                    <polygon id="Star-221" fill="#7A22A3" points="22.7657658 40.9330875 18.0324969 45.2945079 15.4721892 39.3738235 9.38438439 41.4218507 9.43973824 34.9656424 3.05003428 34.3461538 5.71147853 28.4707587 0.124713247 25.2908697 4.93206001 21.012197 1.11423589 15.8217391 7.23625124 13.8796101 5.84750474 7.57606073 12.2256366 8.30628728 13.5060946 1.97958734 19.0375061 5.25590659 22.7657658 0 26.4940255 5.25590659 32.0254369 1.97958734 33.3058949 8.30628728 39.6840268 7.57606073 38.2952803 13.8796101 44.4172956 15.8217391 40.5994715 21.012197 45.4068183 25.2908697 39.820053 28.4707587 42.4814973 34.3461538 36.0917933 34.9656424 36.1471471 41.4218507 30.0593424 39.3738235 27.4990346 45.2945079"></polygon>
                    <text id="12" font-family="OpenSans-Bold, Open Sans" font-size="21.6000009" font-weight="bold" letter-spacing="-1.20000005" fill="#FFFFFF">
                        <tspan x="10.7837838" y="30.2307692">1</tspan>
                        <tspan x="21.9130811" y="30.2307692">2</tspan>
                    </text>
                    <g id="Checkmark" transform="translate(34.092407, 28.974471)">
                        <ellipse id="Oval-278" fill="#FFFFFF" cx="9.09000429" cy="9.24107331" rx="5.88176748" ry="5.97951802"></ellipse>
                        <path d="M8.55529816,0 C3.83063475,0 0,3.89429701 0,8.69748076 C0,13.5006645 3.83063475,17.3949615 8.55529816,17.3949615 C13.2799616,17.3949615 17.1105963,13.5006645 17.1105963,8.69748076 C17.1105963,3.89429701 13.2799616,0 8.55529816,0 L8.55529816,0 Z M11.763535,4.99452833 L13.2671286,6.52311057 L7.48588589,12.4004332 L3.8434677,8.69748076 L5.34706135,7.16889852 L7.48588589,9.34326871 L11.763535,4.99452833 L11.763535,4.99452833 Z" id="Shape" fill="#11CA29"></path>
                    </g>
                </g>
            </g>
        </g>
    </g>
</svg>