<?xml version="1.0" encoding="UTF-8" standalone="no"?>
<svg width="41px" height="40px" viewBox="0 0 41 40" version="1.1" xmlns="http://www.w3.org/2000/svg" xmlns:xlink="http://www.w3.org/1999/xlink">
    <!-- Generator: sketchtool 3.7.2 (28276) - http://www.bohemiancoding.com/sketch -->
    <title>5AE8BAFE-496E-4C48-B65F-7A33EEE99799</title>
    <desc>Created with sketchtool.</desc>
    <defs></defs>
    <g id="Symbols" stroke="none" stroke-width="1" fill="none" fill-rule="evenodd">
        <g id="Card-Elements-/-Badges-2x2">
            <g id="Group-5">
                <g id="facebook-verified">
                    <path d="M30.7390572,0 L3.84238215,0 C1.72907197,0 0,1.69491525 0,3.76647834 L0,30.1318267 C0,32.2052731 1.72907197,33.8983051 3.84238215,33.8983051 L17.2907197,33.8983051 L17.2907197,20.7156309 L13.4483375,20.7156309 L13.4483375,16.0546139 L17.2907197,16.0546139 L17.2907197,12.1939736 C17.2907197,8.11864407 19.6192033,5.25612053 24.5259253,5.25612053 L27.9898328,5.25988701 L27.9898328,10.165725 L25.6901671,10.165725 C23.7805032,10.165725 23.0542929,11.5706215 23.0542929,12.873823 L23.0542929,16.0564972 L27.9879116,16.0564972 L26.8966751,20.7156309 L23.0542929,20.7156309 L23.0542929,33.8983051 L30.7390572,33.8983051 C32.8523674,33.8983051 34.5814394,32.2052731 34.5814394,30.1318267 L34.5814394,3.76647834 C34.5814394,1.69491525 32.8523674,0 30.7390572,0 L30.7390572,0 Z" id="Shape" fill="#7A22A3"></path>
                    <g id="Checkmark-Copy" transform="translate(22.310606, 21.869874)">
                        <ellipse id="Oval-278" fill="#FFFFFF" cx="8.36647727" cy="9.29469656" rx="6.13541667" ry="6.01421542"></ellipse>
                        <path d="M8.92424242,0 C3.99582955,0 0,3.91689448 0,8.7479497 C0,13.5790049 3.99582955,17.4958994 8.92424242,17.4958994 C13.8526553,17.4958994 17.8484848,13.5790049 17.8484848,8.7479497 C17.8484848,3.91689448 13.8526553,0 8.92424242,0 L8.92424242,0 Z M12.2708333,5.02351011 L13.8392689,6.56096227 L7.80871212,12.4723893 L4.00921591,8.7479497 L5.57765152,7.21049754 L7.80871212,9.39748496 L12.2708333,5.02351011 L12.2708333,5.02351011 Z" id="Shape" fill="#11CA29"></path>
                    </g>
                </g>
            </g>
        </g>
    </g>
</svg>