<?xml version="1.0" encoding="UTF-8" standalone="no"?>
<svg width="16px" height="29px" viewBox="0 0 16 29" version="1.1" xmlns="http://www.w3.org/2000/svg" xmlns:xlink="http://www.w3.org/1999/xlink">
    <!-- Generator: sketchtool 3.7.2 (28276) - http://www.bohemiancoding.com/sketch -->
    <title>6CBA3F5C-74D3-4D0D-9872-AD415BDAB701</title>
    <desc>Created with sketchtool.</desc>
    <defs></defs>
    <g id="Page-1" stroke="none" stroke-width="1" fill="none" fill-rule="evenodd">
        <g id="Venue-Detail" transform="translate(-687.000000, -290.000000)" fill="#7A22A3">
            <g id="Rectangle-1-+-Velvet-Revolver:-+-Rectangle-2-+-MUSIC-CONCERT-+-More-info" transform="translate(150.000000, 266.000000)">
                <g id="More-info" transform="translate(458.000000, 0.000000)">
                    <g id="food-icon" transform="translate(79.000000, 24.000000)">
                        <path d="M2.60093614,10.4163019 L2.60093614,27.0594598 C2.60093614,27.4933874 2.75924513,27.8687139 3.07650707,28.1856538 C3.38818794,28.4973883 3.75702105,28.6542484 4.18198676,28.6591855 C4.60668416,28.6542484 4.97578558,28.4973347 5.28778844,28.1856538 C5.6047284,27.8687139 5.76298372,27.4933874 5.76298372,27.0594598 L5.76298372,10.4163019 C6.23855465,10.2497824 8.02122116,8.66089679 8.02122116,8.15146384 L8.02122116,1.45756961 C8.02122116,1.24114245 7.94174468,1.05326456 7.78343569,0.894633594 C7.62480472,0.736324608 7.43692684,0.656848131 7.22049967,0.656848131 C7.00342854,0.656848131 6.81587264,0.736324608 6.65756365,0.894633594 C6.49893268,1.05358655 6.41977819,1.24114245 6.41977819,1.45756961 L6.41977819,6.66244708 C6.41977819,6.87951822 6.34030171,7.06707412 6.18199273,7.2253831 C6.02336176,7.38401407 5.83580586,7.46284658 5.61905671,7.46284658 C5.40198557,7.46284658 5.21442967,7.38401407 5.05612068,7.2253831 C4.8978117,7.06707412 4.81833522,6.87919623 4.81833522,6.66244708 L4.81833522,1.45756961 C4.81833522,1.24114245 4.73885874,1.05326456 4.58054976,0.894633594 C4.42224077,0.736324608 4.23441655,0.656848131 4.0176674,0.656848131 C3.80059627,0.656848131 3.61304037,0.736324608 3.45473138,0.894633594 C3.29610041,1.05358655 3.21694592,1.24114245 3.21694592,1.45756961 L3.21694592,6.66244708 C3.21694592,6.87951822 3.13746944,7.06707412 2.97916046,7.2253831 C2.82052949,7.38401407 2.63297359,7.46284658 2.41622444,7.46284658 C2.1991533,7.46284658 2.0115974,7.38401407 1.85328841,7.2253831 C1.69465744,7.06707412 1.61550295,6.87919623 1.61550295,6.66244708 L1.61550295,1.45756961 C1.61550295,1.24114245 1.53634846,1.05326456 1.37771749,0.894633594 C1.2194085,0.736324608 1.03158428,0.656848131 0.814781468,0.656848131 C0.597710333,0.656848131 0.410154433,0.736324608 0.251899112,0.894633594 C0.0935901258,1.05358655 0.0141136486,1.24114245 0.0141136486,1.45756961 L0.0141136486,8.15119552 C0.0142746407,8.66052114 2.12536521,10.2494604 2.60093614,10.4163019 L2.60093614,10.4163019 Z" id="Shape"></path>
                        <path id="Shape"></path>
                        <path id="Shape"></path>
                        <path d="M11.0085922,14.4135233 L12.8261404,14.4135233 L12.8261404,27.3879375 C12.8261404,27.8217578 12.9843957,28.1971916 13.3013356,28.5140242 C13.6132312,28.8257588 13.9821179,28.9827261 14.4070837,28.9876632 C14.8316737,28.9827261 15.2008288,28.8257051 15.5128317,28.5140242 C15.8297716,28.1971916 15.9883489,27.8217578 15.9883489,27.3879375 L15.9883489,0.800721484 C15.9883489,0.584294318 15.9089261,0.396416433 15.7506171,0.237785463 C15.5920398,0.0794764773 15.4045376,0 15.1877884,0 L14.6123487,0 C13.5111621,0 12.5686065,0.392176972 11.7846282,1.1761016 C11.0007573,1.96034822 10.608634,2.90295749 10.608634,4.00382207 L10.608634,14.0132431 C10.608634,14.1216445 10.6483454,14.2155566 10.7274999,14.2947111 C10.8062787,14.3738119 10.9001908,14.4135233 11.0085922,14.4135233 L11.0085922,14.4135233 Z" id="Shape"></path>
                    </g>
                </g>
            </g>
        </g>
    </g>
</svg>