<?xml version="1.0" encoding="UTF-8" standalone="no"?>
<svg width="53px" height="40px" viewBox="0 0 53 40" version="1.1" xmlns="http://www.w3.org/2000/svg" xmlns:xlink="http://www.w3.org/1999/xlink">
    <!-- Generator: sketchtool 3.7.2 (28276) - http://www.bohemiancoding.com/sketch -->
    <title>D5988565-FEE6-4EC8-9835-55A7B99493B6</title>
    <desc>Created with sketchtool.</desc>
    <defs></defs>
    <g id="Symbols" stroke="none" stroke-width="1" fill="none" fill-rule="evenodd">
        <g id="Card-Elements-/-Badges-2x2" transform="translate(-153.000000, 0.000000)">
            <g id="Group-6" transform="translate(153.000000, 0.000000)">
                <g id="identity-verified">
                    <path d="M46.9846453,5.86538934 C46.9846453,2.62589044 44.4728461,0 41.3751485,0 L5.6094968,0 C2.51179914,0 0,2.62589044 0,5.86538934 L0,28.0329157 C0,31.2719234 2.51179914,33.8983051 5.6094968,33.8983051 L41.3746786,33.8983051 C44.4728461,33.8983051 46.9846453,31.2719234 46.9846453,28.0329157 L46.9846453,5.86538934 Z M13.3479106,18.5893931 C16.5915235,18.5893931 19.2209913,15.8967372 19.2209913,12.5751777 C19.2209913,9.25361824 16.5915235,6.56096227 13.3479106,6.56096227 C10.1042977,6.56096227 7.47482993,9.25361824 7.47482993,12.5751777 C7.47482993,15.8967372 10.1042977,18.5893931 13.3479106,18.5893931 Z M20.2888241,22.963368 L19.5586934,22.963368 C19.4999626,22.963368 19.4452362,22.8890104 19.3829459,22.7634064 C18.6123265,21.1888345 17.6659597,19.9991134 16.7195928,19.1068225 C15.613496,20.0227269 14.2680266,20.6216068 12.7953071,20.6216068 C11.3248123,20.6216068 9.97622838,20.0875386 8.87191124,19.1731414 C7.92331973,20.0654323 6.97917752,21.1737621 6.20410884,22.7523532 C6.14226352,22.8779572 6.08664723,22.963368 6.02880628,22.963368 L4.27133139,22.963368 L4.27133139,4.37397485 L20.2888241,4.37397485 L20.2888241,22.963368 Z M33.1028183,27.3373428 L24.5601555,27.3373428 L24.5601555,26.2438491 L33.1028183,26.2438491 L33.1028183,27.3373428 Z M43.7811467,24.0568617 L24.5601555,24.0568617 L24.5601555,22.963368 L43.7811467,22.963368 L43.7811467,24.0568617 Z M43.7811467,22.963368 L24.5601555,22.963368 L24.5601555,21.8698742 L43.7811467,21.8698742 L43.7811467,22.963368 Z M43.7811467,20.7763805 L24.5601555,20.7763805 L24.5601555,19.6828868 L43.7811467,19.6828868 L43.7811467,20.7763805 Z M43.7811467,18.5893931 L24.5601555,18.5893931 L24.5601555,17.4958994 L43.7811467,17.4958994 L43.7811467,18.5893931 Z M43.7811467,15.308912 L24.5601555,15.308912 L24.5601555,14.2154183 L43.7811467,14.2154183 L43.7811467,15.308912 Z M43.7811467,13.1219245 L24.5601555,13.1219245 L24.5601555,8.7479497 L43.7811467,8.7479497 L43.7811467,13.1219245 Z M43.7811467,8.7479497 L24.5601555,8.7479497 L24.5601555,4.37397485 L43.7811467,4.37397485 L43.7811467,8.7479497 Z" id="identity" fill="#7A22A3"></path>
                    <g id="Checkmark" transform="translate(35.238484, 21.869874)">
                        <ellipse id="Oval-278" fill="#FFFFFF" cx="9.0765792" cy="9.29469656" rx="5.87308066" ry="6.01421542"></ellipse>
                        <path d="M8.54266278,0 C3.82497726,0 0,3.91689448 0,8.7479497 C0,13.5790049 3.82497726,17.4958994 8.54266278,17.4958994 C13.2603483,17.4958994 17.0853256,13.5790049 17.0853256,8.7479497 C17.0853256,3.91689448 13.2603483,0 8.54266278,0 L8.54266278,0 Z M11.7461613,5.02351011 L13.2475343,6.56096227 L7.47482993,12.4723893 L3.83779125,8.7479497 L5.33916424,7.21049754 L7.47482993,9.39748496 L11.7461613,5.02351011 L11.7461613,5.02351011 Z" id="Shape" fill="#11CA29"></path>
                    </g>
                </g>
            </g>
        </g>
    </g>
</svg>