<?xml version="1.0" encoding="UTF-8" standalone="no"?>
<svg width="34px" height="47px" viewBox="0 0 34 47" version="1.1" xmlns="http://www.w3.org/2000/svg" xmlns:xlink="http://www.w3.org/1999/xlink">
    <!-- Generator: sketchtool 3.7.2 (28276) - http://www.bohemiancoding.com/sketch -->
    <title>2DDFBF03-8514-4E95-9691-5BD15A739221</title>
    <desc>Created with sketchtool.</desc>
    <defs></defs>
    <g id="Page-1" stroke="none" stroke-width="1" fill="none" fill-rule="evenodd">
        <g id="Event-Homepage" transform="translate(-1024.000000, -319.000000)" fill="#7A22A3">
            <g id="Features-+-TICKETSLOTH-IS-A-NEW" transform="translate(152.000000, 245.000000)">
                <g id="Features" transform="translate(0.000000, 74.000000)">
                    <g id="ALL-TYPE-OF-EVENTS-+-Group-+-It-was-a-humorously--Copy-3" transform="translate(872.000000, 0.000000)">
                        <g id="musicevents-icon">
                            <path d="M16.9997409,0.187054835 C7.89350182,0.187075495 0.511835485,7.58826363 0.511759758,16.7180085 C0.511759758,25.8477791 17.5017473,46.6705868 17.5017473,46.6705868 C17.5017473,46.6705868 33.4882521,25.8477791 33.4882521,16.7180085 C33.4882521,7.58826363 26.1059037,0.187075495 16.9997409,0.187054835 L16.9997409,0.187054835 Z M16.9997409,3.5425656 C24.257583,3.5425599 30.1412374,9.44140008 30.1412653,16.7180085 C30.1412346,23.9946148 24.257581,29.8934519 16.9997409,29.8934462 C9.74193012,29.8934102 3.85832239,23.9945854 3.85829167,16.7180085 C3.85831955,9.44142953 9.7419281,3.54260155 16.9997409,3.5425656 L16.9997409,3.5425656 Z" id="Shape"></path>
                            <path d="M15.9302225,11.2267092 C15.578226,11.2268362 15.2658151,11.4528053 15.154684,11.787662 L13.1058404,17.9523782 C12.7250759,17.6823503 12.2622216,17.5224987 11.7646831,17.5224987 C10.4822917,17.5224987 9.42693479,18.5806288 9.42693479,19.8659342 C9.42693479,21.1512396 10.4822917,22.2093593 11.7646831,22.2093593 C12.930301,22.2093593 13.9076572,21.335087 14.0760026,20.2106869 C14.0839241,20.1923413 14.0911737,20.1737113 14.0977368,20.1548344 L16.5196202,12.8660124 L22.6207878,12.8660124 L20.9218119,17.9789255 C20.5343077,17.6927368 20.0574433,17.5224987 19.5436229,17.5224987 C18.2612315,17.5224987 17.2061018,18.5806288 17.2061018,19.8659342 C17.2061018,21.1512396 18.2612315,22.2093593 19.5436229,22.2093593 C20.6582758,22.2093593 21.6007208,21.40991 21.8282859,20.3567743 C21.8685287,20.2940468 21.900045,20.2261067 21.9219626,20.1548344 L24.5307445,12.3057879 C24.6139149,12.055716 24.5720644,11.7808019 24.4182763,11.5669894 C24.2644881,11.3531768 24.0175276,11.2265552 23.7545997,11.2267092 L15.9302225,11.2267092 L15.9302225,11.2267092 Z" id="Shape"></path>
                        </g>
                    </g>
                </g>
            </g>
        </g>
    </g>
</svg>