<?xml version="1.0" encoding="UTF-8" standalone="no"?>
<svg width="47px" height="47px" viewBox="0 0 47 47" version="1.1" xmlns="http://www.w3.org/2000/svg" xmlns:xlink="http://www.w3.org/1999/xlink">
    <!-- Generator: sketchtool 3.7.2 (28276) - http://www.bohemiancoding.com/sketch -->
    <title>72CA0CA8-3BD8-4D1F-8874-995A56A95164</title>
    <desc>Created with sketchtool.</desc>
    <defs></defs>
    <g id="Page-1" stroke="none" stroke-width="1" fill="none" fill-rule="evenodd">
        <g id="Event-Homepage" transform="translate(-442.000000, -319.000000)" fill="#7A22A3">
            <g id="Features-+-TICKETSLOTH-IS-A-NEW" transform="translate(152.000000, 245.000000)">
                <g id="Features" transform="translate(0.000000, 74.000000)">
                    <g id="NO-FEES-+-Shape-+-It-was-a-humorously--Copy" transform="translate(290.000000, 0.000000)">
                        <path d="M23.5,0 C10.5215684,0 0,10.5215684 0,23.5 C0,36.4784316 10.5215684,47 23.5,47 C36.4779368,47 47,36.4784316 47,23.5 C47,10.5215684 36.4779368,0 23.5,0 L23.5,0 Z M23.5,42.2762526 C13.1303158,42.2762526 4.72374737,33.8696842 4.72374737,23.5 C4.72374737,19.1626421 6.19509474,15.1701158 8.66482105,11.9909368 L13.0991474,16.4252632 C13.0981579,16.4821579 13.0951895,16.5380632 13.0951895,16.5954526 C13.0951895,18.4853474 13.6725474,20.0704842 14.8272632,21.3513579 C15.9819789,22.6322316 17.8911684,23.8186105 20.6631789,24.9104947 L22.0157895,25.4566842 L22.0157895,31.9659368 C21.0263158,31.8818316 19.1834211,31.6087368 17.4686632,31.1471474 C15.7539053,30.6850632 14.5947368,30.1532211 13.1105263,29.5511263 L13.1105263,35.0946526 C15.5842105,36.2285895 18.5526316,36.8306842 22.0157895,36.8999474 L22.0157895,41.3105263 L24.9842105,41.3105263 L24.9842105,36.8168316 C27.4578947,36.5719368 29.7856316,35.8644632 31.3628526,34.6973789 L35.0046105,38.3356737 C31.8259263,40.8054 27.8373579,42.2762526 23.5,42.2762526 L23.5,42.2762526 Z M22.0157895,18.7970316 L19.3580632,16.1393053 C19.5693158,15.2186 20.5315789,14.6422316 22.0157895,14.4121789 L22.0157895,18.7970316 L22.0157895,18.7970316 Z M27.3668632,30.7098 C26.9082421,31.2574737 25.9736842,31.6280316 24.9842105,31.819 L24.9842105,28.3266526 L27.3668632,30.7098 L27.3668632,30.7098 Z M38.3351789,35.0090632 L34.0096947,30.6830842 C34.1200211,30.1606421 34.1764211,29.6090105 34.1764211,29.0262105 C34.1764211,27.7948105 33.9067895,26.7167789 33.3680211,25.7926105 C32.8287579,24.8689368 31.9743474,24.0224421 30.8186421,23.2521368 C29.6639263,22.4823263 27.4578947,21.5725053 24.9842105,20.5221789 L24.9842105,14.3280737 C27.4578947,14.5244842 29.5278737,15.0701789 31.7116421,15.9661474 L33.6811895,11.0529158 C31.0917368,9.90512632 28.4473684,9.26097895 24.9842105,9.12096842 L24.9842105,6.18421053 L22.0157895,6.18421053 L22.0157895,9.20457895 C19.5421053,9.4846 17.0125158,10.2786526 15.4239158,11.5877263 C15.3200211,11.6733158 15.2463053,11.7608842 15.1493368,11.8499368 L11.9775789,8.66482105 C15.1562632,6.19509474 19.1562105,4.72424211 23.4935684,4.72424211 C33.8627579,4.72424211 42.2727895,13.1308105 42.2727895,23.5004947 C42.2727895,27.8368632 40.8054,31.8298842 38.3351789,35.0090632 L38.3351789,35.0090632 Z" id="nofees-icon"></path>
                    </g>
                </g>
            </g>
        </g>
    </g>
</svg>