<?xml version="1.0" encoding="UTF-8" standalone="no"?>
<svg width="16px" height="16px" viewBox="0 0 16 16" version="1.1" xmlns="http://www.w3.org/2000/svg" xmlns:xlink="http://www.w3.org/1999/xlink">
    <!-- Generator: sketchtool 3.7.2 (28276) - http://www.bohemiancoding.com/sketch -->
    <title>5C87EEC2-7360-4D2A-AEE6-908CD7956189</title>
    <desc>Created with sketchtool.</desc>
    <defs></defs>
    <g id="Page-1" stroke="none" stroke-width="1" fill="none" fill-rule="evenodd">
        <g id="Signup" transform="translate(-576.000000, -697.000000)" fill="#7A22A3">
            <g id="Login-Box" transform="translate(555.000000, 382.000000)">
                <path d="M21.4781662,315.489208 C21.453119,315.516458 21.4371217,315.550794 21.4323708,315.587501 L21.0014395,318.958686 C20.994427,319.013714 21.0132875,319.06889 21.0525176,319.108113 C21.0917478,319.147336 21.1469269,319.166187 21.2019541,319.159165 L23.5004325,318.865299 L23.2065672,321.163778 C23.1995426,321.218812 23.2183977,321.273998 23.2576295,321.31323 C23.2968612,321.352462 23.3520476,321.371317 23.4070818,321.364292 L25.7060935,321.07096 L25.4122282,323.369439 C25.4052982,323.424449 25.4242148,323.479571 25.4634635,323.518736 L26.3838149,324.439087 C25.9761064,326.237493 26.5183906,328.119391 27.8205727,329.425091 C29.920501,331.525019 33.3251418,331.525035 35.4250535,329.425127 C36.433475,328.416717 37.0000003,327.049012 37,325.622891 C36.9999997,324.19677 36.4334736,322.829054 35.4250518,321.820628 C34.1194099,320.5162 32.236023,319.972507 30.436079,320.380421 L25.1082812,315.052446 C25.0690222,315.013224 25.0138121,314.994396 24.9587707,315.001459 L21.5874084,315.432391 C21.5454687,315.437818 21.5067991,315.457899 21.4782355,315.489084 M31.5626516,325.562602 C32.1226246,325.002633 33.0305188,325.002633 33.5905001,325.562602 C33.8594129,325.831515 34.0104867,326.196239 34.010487,326.576538 C34.0104874,326.956837 33.8594142,327.321559 33.5905019,327.590468 C33.3215923,327.859381 32.9568705,328.010454 32.5765715,328.010454 C32.1962726,328.010453 31.8315488,327.859379 31.5626356,327.590467 C31.0026661,327.030485 31.0026661,326.122591 31.5626356,325.562618" id="password-icon" transform="translate(29.000000, 323.000024) rotate(-180.000000) translate(-29.000000, -323.000024) "></path>
            </g>
        </g>
    </g>
</svg>