<?xml version="1.0" encoding="UTF-8" standalone="no"?>
<svg width="16px" height="16px" viewBox="0 0 16 16" version="1.1" xmlns="http://www.w3.org/2000/svg" xmlns:xlink="http://www.w3.org/1999/xlink">
    <!-- Generator: sketchtool 3.7.2 (28276) - http://www.bohemiancoding.com/sketch -->
    <title>7CA07B29-2A36-4BB8-B239-2661CF992664</title>
    <desc>Created with sketchtool.</desc>
    <defs></defs>
    <g id="Page-1" stroke="none" stroke-width="1" fill="none" fill-rule="evenodd">
        <g id="Signup" transform="translate(-576.000000, -552.000000)" fill="#7A22A3">
            <g id="Login-Box" transform="translate(555.000000, 382.000000)">
                <g id="Username-Base-+-Username-+-Shape-Copy-3" transform="translate(21.000000, 166.000000)">
                    <path d="M9.23133471,13.231583 C7.64783441,14.814083 5.81325479,16.3285615 5.08802566,15.6033323 C4.05069792,14.5660046 3.41049565,13.6617189 1.12177254,15.5013001 C-1.16595025,17.339881 0.591605036,18.5662685 1.59692266,19.5705858 C2.75728927,20.7309524 7.08265585,19.6326054 11.3580066,15.3582549 C15.6323571,11.0829041 16.7277031,6.75753755 15.5663362,5.59717094 C14.5610186,4.590853 13.340633,2.83429802 11.5020521,5.12202082 C9.66247093,7.40974361 10.5657563,8.04994588 11.6050847,9.08827393 C12.3273129,9.81350307 10.8138347,11.6480827 9.23133471,13.231583 L9.23133471,13.231583 Z" id="phone-icon"></path>
                </g>
            </g>
        </g>
    </g>
</svg>