<?xml version="1.0" encoding="UTF-8" standalone="no"?>
<svg width="25px" height="40px" viewBox="0 0 25 40" version="1.1" xmlns="http://www.w3.org/2000/svg" xmlns:xlink="http://www.w3.org/1999/xlink">
    <!-- Generator: sketchtool 3.7.2 (28276) - http://www.bohemiancoding.com/sketch -->
    <title>E364CC1F-0508-4946-B638-9C8E8923C95C</title>
    <desc>Created with sketchtool.</desc>
    <defs></defs>
    <g id="Symbols" stroke="none" stroke-width="1" fill="none" fill-rule="evenodd">
        <g id="Card-Elements-/-Badges-2x2" transform="translate(-8.000000, -84.000000)">
            <g id="Group-4" transform="translate(8.000000, 84.000000)">
                <g id="phone-verified" transform="translate(0.116883, 0.000000)">
                    <path d="M16.29411,0 L2.44425052,0 C1.09403474,0 -1.77635684e-15,1.0773877 -1.77635684e-15,2.40517282 L-1.77635684e-15,31.4882299 C-1.77635684e-15,32.8205403 1.09403474,33.8983051 2.44425052,33.8983051 L16.29411,33.8983051 C17.6447087,33.8983051 18.7383605,32.8209174 18.7383605,31.4882299 L18.7383605,2.40517282 C18.7379775,1.0773877 17.6447087,0 16.29411,0 L16.29411,0 L16.29411,0 Z M7.53608808,31.0462634 C7.53608808,30.0503303 8.35517814,29.2395555 9.36764851,29.2395555 C10.3801189,29.2395555 11.2011236,30.0503303 11.2011236,31.0462634 C11.2011236,32.0448362 10.3797359,32.8514629 9.36764851,32.8514629 C8.35556107,32.8514629 7.53608808,32.0452133 7.53608808,31.0462634 L7.53608808,31.0462634 L7.53608808,31.0462634 Z M11.2015065,2.24452628 C11.5404007,2.24452628 11.8126649,2.51491024 11.8126649,2.84789356 C11.8126649,3.18087688 11.5404007,3.45126084 11.2015065,3.45126084 L7.53647101,3.45126084 C7.19834267,3.45126084 6.92569558,3.18087688 6.92569558,2.84789356 C6.92569558,2.51491024 7.19834267,2.24452628 7.53647101,2.24452628 L11.2015065,2.24452628 L11.2015065,2.24452628 L11.2015065,2.24452628 Z M1.42565325,5.61734937 L17.3127072,5.61734937 L17.3127072,28.0795819 L1.42565325,28.0795819 L1.42565325,5.61734937 L1.42565325,5.61734937 L1.42565325,5.61734937 Z" id="Shape" fill="#7A22A3"></path>
                    <g id="Checkmark-Copy-2" transform="translate(6.662338, 21.869874)">
                        <ellipse id="Oval-278" fill="#FFFFFF" cx="9.43831169" cy="9.29469656" rx="6.10714286" ry="6.01421542"></ellipse>
                        <path d="M8.88311688,0 C3.97741558,0 0,3.91689448 0,8.7479497 C0,13.5790049 3.97741558,17.4958994 8.88311688,17.4958994 C13.7888182,17.4958994 17.7662338,13.5790049 17.7662338,8.7479497 C17.7662338,3.91689448 13.7888182,0 8.88311688,0 L8.88311688,0 Z M12.2142857,5.02351011 L13.7754935,6.56096227 L7.77272727,12.4723893 L3.99074026,8.7479497 L5.55194805,7.21049754 L7.77272727,9.39748496 L12.2142857,5.02351011 L12.2142857,5.02351011 Z" id="Shape" fill="#11CA29"></path>
                    </g>
                </g>
            </g>
        </g>
    </g>
</svg>