<?xml version="1.0" encoding="UTF-8" standalone="no"?>
<svg width="20px" height="19px" viewBox="0 0 20 19" version="1.1" xmlns="http://www.w3.org/2000/svg" xmlns:xlink="http://www.w3.org/1999/xlink">
    <!-- Generator: sketchtool 3.7.2 (28276) - http://www.bohemiancoding.com/sketch -->
    <title>47994ECA-CD92-4D5E-A767-49BCEA141A85</title>
    <desc>Created with sketchtool.</desc>
    <defs></defs>
    <g id="Page-1" stroke="none" stroke-width="1" fill="none" fill-rule="evenodd">
        <g id="Venue-Detail" transform="translate(-638.000000, -523.000000)" fill="#EE190B">
            <g id="Rectangle-1-+-Velvet-Revolver:-+-Rectangle-2-+-MUSIC-CONCERT-+-More-info" transform="translate(150.000000, 266.000000)">
                <g id="More-info" transform="translate(458.000000, 0.000000)">
                    <g id="GET-DIRECTIONS-+-Shape" transform="translate(30.000000, 257.000000)">
                        <path d="M17.1250778,6.17151499 L15.0790778,0.536514988 C14.9280778,0.120514988 14.4840778,-0.100485012 14.0900778,0.0445149878 L0.492077822,5.00751499 C0.0980778217,5.15151499 -0.100922178,5.60451499 0.0510778217,6.02051499 L2.20707782,11.961515 L2.20707782,8.77851499 C2.20707782,7.34051499 3.35507782,6.17151499 4.76707782,6.17151499 L8.36007782,6.17151499 L12.6450778,3.16351499 L15.1240778,6.17151499 L17.1250778,6.17151499 L17.1250778,6.17151499 Z M19.2380778,8.00151499 L4.76707782,8.00151499 C4.34707782,8.00151499 4.00507782,8.33551499 4.00507782,8.77851499 L4.00507782,18.198515 C4.00607782,18.642515 4.34807782,19.001515 4.76707782,19.001515 L19.2380778,19.001515 C19.6580778,19.001515 20.0000778,18.642515 20.0000778,18.198515 L20.0000778,8.77851499 C20.0000778,8.33551499 19.6580778,8.00151499 19.2380778,8.00151499 L19.2380778,8.00151499 Z M18.0000778,17.001515 L6.00007782,17.001515 L6.00007782,15.001515 L7.98407782,10.983515 L10.7520778,14.419515 L13.3500778,11.757515 L16.6880778,10.552515 L18.0000778,14.001515 L18.0000778,17.001515 L18.0000778,17.001515 Z" id="photos-icon"></path>
                    </g>
                </g>
            </g>
        </g>
    </g>
</svg>