<?xml version="1.0" encoding="UTF-8" standalone="no"?>
<svg width="19px" height="19px" viewBox="0 0 19 19" version="1.1" xmlns="http://www.w3.org/2000/svg" xmlns:xlink="http://www.w3.org/1999/xlink">
    <!-- Generator: sketchtool 3.7.2 (28276) - http://www.bohemiancoding.com/sketch -->
    <title>93347622-9477-4EF0-AE7C-30DB04F25212</title>
    <desc>Created with sketchtool.</desc>
    <defs></defs>
    <g id="Page-1" stroke="none" stroke-width="1" fill="none" fill-rule="evenodd">
        <g id="Venue-Detail" transform="translate(-639.000000, -551.000000)">
            <g id="Rectangle-1-+-Velvet-Revolver:-+-Rectangle-2-+-MUSIC-CONCERT-+-More-info" transform="translate(150.000000, 266.000000)">
                <g id="More-info" transform="translate(458.000000, 0.000000)">
                    <g id="GET-DIRECTIONS-+-Shape-Copy" transform="translate(31.000000, 285.000000)">
                        <g id="review-icon">
                            <path d="M17.64625,18.07375 C17.74125,18.0975 17.8125,18.02625 17.78875,17.93125 L16.7675,15.5325 C16.72,15.4375 16.74375,15.31875 16.815,15.22375 C18.40625,13.205 19.19,10.52125 18.64375,7.6475 C17.955,3.99 15.08125,1.06875 11.4475,0.3325 C4.275,-1.11625 -1.87625,5.7 0.83125,12.99125 C1.71,15.3425 3.5625,17.21875 5.91375,18.0975 C9.19125,19.3325 12.37375,18.78625 14.7725,17.1475 C14.84375,17.1 14.9625,17.07625 15.03375,17.12375 L17.64625,18.07375 L17.64625,18.07375 Z" id="Shape" fill="#EE190B"></path>
                            <path d="M9.90375,3.82375 L11.3525,6.76875 C11.42375,6.91125 11.5425,7.00625 11.70875,7.03 L14.9625,7.505 C15.3425,7.5525 15.485,8.0275 15.22375,8.28875 L12.8725,10.56875 C12.75375,10.66375 12.70625,10.83 12.73,10.9725 L13.27625,14.2025 C13.3475,14.5825 12.94375,14.8675 12.61125,14.6775 L9.71375,13.1575 C9.57125,13.08625 9.42875,13.08625 9.28625,13.1575 L6.38875,14.6775 C6.05625,14.84375 5.6525,14.55875 5.72375,14.2025 L6.27,10.9725 C6.29375,10.83 6.24625,10.66375 6.1275,10.56875 L3.8,8.265 C3.53875,8.00375 3.68125,7.52875 4.06125,7.48125 L7.315,7.00625 C7.4575,6.9825 7.6,6.8875 7.67125,6.745 L9.12,3.8 C9.2625,3.4675 9.7375,3.4675 9.90375,3.82375 L9.90375,3.82375 Z" id="Shape" fill="#FFFFFF"></path>
                        </g>
                    </g>
                </g>
            </g>
        </g>
    </g>
</svg>