<?xml version="1.0" encoding="UTF-8" standalone="no"?>
<svg width="47px" height="47px" viewBox="0 0 47 47" version="1.1" xmlns="http://www.w3.org/2000/svg" xmlns:xlink="http://www.w3.org/1999/xlink">
    <!-- Generator: sketchtool 3.7.2 (28276) - http://www.bohemiancoding.com/sketch -->
    <title>B218A50F-60FB-420F-B326-CC8B994401CF</title>
    <desc>Created with sketchtool.</desc>
    <defs></defs>
    <g id="Page-1" stroke="none" stroke-width="1" fill="none" fill-rule="evenodd">
        <g id="Event-Homepage" transform="translate(-152.000000, -319.000000)">
            <g id="Features-+-TICKETSLOTH-IS-A-NEW" transform="translate(152.000000, 245.000000)">
                <g id="Features" transform="translate(0.000000, 74.000000)">
                    <g id="REVIEW-SYSTEM-+-Group-+-It-was-a-humorously-">
                        <g id="review-icon">
                            <path d="M43.65125,44.70875 C43.88625,44.7675 44.0625,44.59125 44.00375,44.35625 L41.4775,38.4225 C41.36,38.1875 41.41875,37.89375 41.595,37.65875 C45.53125,32.665 47.47,26.02625 46.11875,18.9175 C44.415,9.87 37.30625,2.64375 28.3175,0.8225 C10.575,-2.76125 -4.64125,14.1 2.05625,32.13625 C4.23,37.9525 8.8125,42.59375 14.62875,44.7675 C22.73625,47.8225 30.60875,46.47125 36.5425,42.4175 C36.71875,42.3 37.0125,42.24125 37.18875,42.35875 L43.65125,44.70875 L43.65125,44.70875 Z" id="Shape" fill="#7A22A3"></path>
                            <path d="M24.49875,9.45875 L28.0825,16.74375 C28.25875,17.09625 28.5525,17.33125 28.96375,17.39 L37.0125,18.565 C37.9525,18.6825 38.305,19.8575 37.65875,20.50375 L31.8425,26.14375 C31.54875,26.37875 31.43125,26.79 31.49,27.1425 L32.84125,35.1325 C33.0175,36.0725 32.01875,36.7775 31.19625,36.3075 L24.02875,32.5475 C23.67625,32.37125 23.32375,32.37125 22.97125,32.5475 L15.80375,36.3075 C14.98125,36.71875 13.9825,36.01375 14.15875,35.1325 L15.51,27.1425 C15.56875,26.79 15.45125,26.37875 15.1575,26.14375 L9.4,20.445 C8.75375,19.79875 9.10625,18.62375 10.04625,18.50625 L18.095,17.33125 C18.4475,17.2725 18.8,17.0375 18.97625,16.685 L22.56,9.4 C22.9125,8.5775 24.0875,8.5775 24.49875,9.45875 L24.49875,9.45875 Z" id="Shape" fill="#FFFFFF"></path>
                        </g>
                    </g>
                </g>
            </g>
        </g>
    </g>
</svg>