<?xml version="1.0" encoding="UTF-8" standalone="no"?>
<svg width="32px" height="30px" viewBox="0 0 32 30" version="1.1" xmlns="http://www.w3.org/2000/svg" xmlns:xlink="http://www.w3.org/1999/xlink">
    <!-- Generator: sketchtool 3.7.2 (28276) - http://www.bohemiancoding.com/sketch -->
    <title>FC1AA31A-3307-4531-9733-CE2C847C0064</title>
    <desc>Created with sketchtool.</desc>
    <defs></defs>
    <g id="Page-1" stroke="none" stroke-width="1" fill="none" fill-rule="evenodd">
        <g id="Venue-Detail" transform="translate(-724.000000, -290.000000)">
            <g id="Rectangle-1-+-Velvet-Revolver:-+-Rectangle-2-+-MUSIC-CONCERT-+-More-info" transform="translate(150.000000, 266.000000)">
                <g id="More-info" transform="translate(458.000000, 0.000000)">
                    <g id="seats-icon" transform="translate(116.000000, 24.000000)">
                        <path d="M8.08695652,16.3043478 L23.1521739,16.3043478 C23.8043478,16.3043478 24.326087,15.7826087 24.326087,15.1304348 L24.326087,8.73913043 C24.326087,3.91304348 20.4130435,0 15.5869565,0 C10.7608696,0 6.84782609,3.91304348 6.84782609,8.73913043 L6.84782609,15.1304348 C6.91304348,15.7826087 7.43478261,16.3043478 8.08695652,16.3043478 L8.08695652,16.3043478 Z" id="Shape" fill="#7A22A3"></path>
                        <path d="M12.9775391,11.3170755 L12.1142578,11.3170755 L12.1142578,10.2782153 L13.2568359,10.2782153 L13.6376953,8.88519819 L12.1142578,8.88519819 L12.1142578,7.84161586 L13.9233398,7.84161586 L14.4248047,6 L15.8466797,6 L15.3452148,7.84161586 L16.7480469,7.84161586 L17.2368164,6 L18.7094727,6 L18.2016602,7.84161586 L19.0776367,7.84161586 L19.0776367,8.88519819 L17.9160156,8.88519819 L17.5351562,10.2782153 L19.0776367,10.2782153 L19.0776367,11.3170755 L17.2495117,11.3170755 L16.7480469,13.1586914 L15.3325195,13.1586914 L15.8212891,11.3170755 L14.4121094,11.3170755 L13.9106445,13.1586914 L12.4760742,13.1586914 L12.9775391,11.3170755 Z M15.065918,8.88519819 L14.6914062,10.2782153 L16.1005859,10.2782153 L16.46875,8.88519819 L15.065918,8.88519819 Z" id="#" fill="#FFFFFF"></path>
                        <path d="M30.6521739,11.3478261 C30.3913043,11.0869565 30.0652174,10.8913043 29.673913,10.8913043 L26.8695652,10.8913043 L26.8695652,15.1956522 C26.8695652,17.2826087 25.173913,18.9130435 23.1521739,18.9130435 L8.08695652,18.9130435 C6,18.9130435 4.36956522,17.2173913 4.36956522,15.1956522 L4.36956522,10.8913043 L1.63043478,10.8913043 C1.23913043,10.8913043 0.913043478,11.0217391 0.652173913,11.3478261 C0.391304348,11.6086957 0.326086957,12 0.326086957,12.3913043 L2.15217391,25.3043478 C2.2173913,25.9565217 2.80434783,26.4130435 3.39130435,26.4130435 L6.7173913,26.4130435 L6.7173913,28.6956522 C6.7173913,29.4130435 7.30434783,30 8.02173913,30 C8.73913043,30 9.32608696,29.4130435 9.32608696,28.6956522 L9.32608696,26.3478261 L22.0434783,26.3478261 L22.0434783,28.6956522 C22.0434783,29.4130435 22.6304348,30 23.3478261,30 C24.0652174,30 24.6521739,29.4130435 24.6521739,28.6956522 L24.6521739,26.3478261 L27.9782609,26.3478261 C28.6304348,26.3478261 29.1521739,25.8913043 29.2173913,25.2391304 L31.0434783,12.326087 C31.0434783,12 30.9130435,11.6086957 30.6521739,11.3478261 L30.6521739,11.3478261 Z" id="Shape" fill="#7A22A3"></path>
                    </g>
                </g>
            </g>
        </g>
    </g>
</svg>