<?xml version="1.0" encoding="UTF-8" standalone="no"?>
<svg width="46px" height="47px" viewBox="0 0 46 47" version="1.1" xmlns="http://www.w3.org/2000/svg" xmlns:xlink="http://www.w3.org/1999/xlink">
    <!-- Generator: sketchtool 3.7.2 (28276) - http://www.bohemiancoding.com/sketch -->
    <title>91374D30-595D-465E-833B-2E5A99EFBB0A</title>
    <desc>Created with sketchtool.</desc>
    <defs></defs>
    <g id="Page-1" stroke="none" stroke-width="1" fill="none" fill-rule="evenodd">
        <g id="Event-Homepage" transform="translate(-733.000000, -319.000000)">
            <g id="Features-+-TICKETSLOTH-IS-A-NEW" transform="translate(152.000000, 245.000000)">
                <g id="Features" transform="translate(0.000000, 74.000000)">
                    <g id="SET-YOUR-PRICE-+-Group-+-It-was-a-humorously--Copy-2" transform="translate(581.000000, 0.000000)">
                        <g id="setprice-icon">
                            <path d="M10.4028511,41.2635263 C10.1067872,40.7658211 10.0177234,40.1696632 10.1567021,39.6056632 L14.4180638,22.2507895 C14.5012553,21.9123895 14.7992766,20.6983053 14.8800213,20.3683158 L19.0327447,3.45524211 L17.0562128,3.45524211 C16.4817021,3.45524211 15.9301915,3.68578947 15.5240213,4.09642105 C15.1178511,4.50705263 14.8893191,5.06412632 14.8898085,5.64494737 C14.8898085,6.13721053 14.7004255,6.59929474 14.3559149,6.94709474 C14.0118936,7.29538947 13.5543404,7.48685263 13.0679149,7.48685263 C12.062766,7.48685263 11.2455319,6.66014737 11.2455319,5.64395789 C11.2455319,4.43482105 10.275617,3.45425263 9.0786383,3.45425263 L2.45414894,3.45425263 C1.25765957,3.45425263 0.287744681,4.43482105 0.287744681,5.64395789 L0.287744681,23.5267158 L0.287744681,25.4660842 L0.287744681,43.3478526 C0.287744681,43.9286737 0.515787234,44.4857474 0.921957447,44.8968737 C1.32812766,45.3075053 1.87914894,45.5380526 2.45365957,45.5380526 L17.0567021,45.5380526 L17.4477021,45.5380526 L23.6811915,45.5380526 C23.9136383,45.5380526 24.1328723,45.4910526 24.3428085,45.4232737 L11.7363617,42.2589368 C11.1789787,42.1194211 10.6989149,41.7612316 10.4028511,41.2635263 Z" id="Shape" fill="#7A22A3"></path>
                            <path d="M27.7918298,44.8666947 L34.2210638,46.4805263 C35.3828085,46.7719263 36.557766,46.0565368 36.846,44.8825263 L41.1073617,27.5281474 C41.1905532,27.1892526 41.4861277,25.9835789 41.5693191,25.6451789 L45.8301915,8.29129474 C46.1174468,7.11678947 45.4103191,5.92892632 44.2495532,5.63752632 L37.8188511,4.02369474 C37.2614681,3.88368421 36.6712979,3.97323158 36.179,4.27304211 C35.6867021,4.57235789 35.3328936,5.0572 35.1944043,5.62169474 C35.0769574,6.09961053 34.7833404,6.50183158 34.3659149,6.75563158 C33.9489787,7.00992632 33.459617,7.08413684 32.9878723,6.9654 C32.0125745,6.72050526 31.4160426,5.71915789 31.6582766,4.73314737 C31.9465106,3.55913684 31.2388936,2.37176842 30.0771489,2.07987368 L23.6474255,0.466536842 C22.4861702,0.175136842 21.3112128,0.890526316 21.0229787,2.06404211 L16.761617,19.4204 C16.6808723,19.7498947 16.3828511,20.9639789 16.2996596,21.3023789 L12.0382979,38.6572526 C11.8998085,39.2207579 11.988383,39.8169158 12.2844468,40.3151158 C12.5805106,40.8128211 13.0605745,41.1705158 13.6184468,41.3105263 L28.1710851,44.9626737 L27.7918298,44.8666947 L27.7918298,44.8666947 Z" id="Shape" fill="#7A22A3"></path>
                            <text id="$" transform="translate(28.739299, 24.303861) rotate(14.000000) translate(-28.739299, -24.303861) " font-family="OpenSans-Bold, Open Sans" font-size="23.6453202" font-weight="bold" letter-spacing="1.31362894" fill="#FFFFFF">
                                <tspan x="21.2392988" y="33.3038613">$</tspan>
                            </text>
                        </g>
                    </g>
                </g>
            </g>
        </g>
    </g>
</svg>