<?xml version="1.0" encoding="UTF-8" standalone="no"?>
<svg width="19px" height="19px" viewBox="0 0 19 19" version="1.1" xmlns="http://www.w3.org/2000/svg" xmlns:xlink="http://www.w3.org/1999/xlink">
    <!-- Generator: sketchtool 3.7.2 (28276) - http://www.bohemiancoding.com/sketch -->
    <title>0EA2F082-FE49-47BD-A75A-5A1E47D16A79</title>
    <desc>Created with sketchtool.</desc>
    <defs></defs>
    <g id="Page-1" stroke="none" stroke-width="1" fill="none" fill-rule="evenodd">
        <g id="Venue-Detail" transform="translate(-638.000000, -579.000000)" fill="#EE190B">
            <g id="Rectangle-1-+-Velvet-Revolver:-+-Rectangle-2-+-MUSIC-CONCERT-+-More-info" transform="translate(150.000000, 266.000000)">
                <g id="More-info" transform="translate(458.000000, 0.000000)">
                    <g id="Shape-+-SAVE-FOR-LATER" transform="translate(30.000000, 313.000000)">
                        <path d="M9.27731158,0 C4.16082738,0 0,4.26213542 0,9.5 C0,14.7378646 4.16082738,19 9.27731158,19 C14.3918632,19 18.5536569,14.7378646 18.5536569,9.5 C18.5536569,4.26213542 14.3918632,0 9.27731158,0 L9.27731158,0 Z M17.1892611,9.5 C17.1892611,11.3534896 16.5747032,13.0625 15.5504401,14.428125 C15.2605543,14.1965625 14.9523091,13.5701563 15.2421949,12.9209896 C15.5349795,12.2678646 15.6113161,10.7557812 15.5436761,10.1669792 C15.4799012,9.57916667 15.1813188,8.16307292 14.3706049,8.14921875 C13.5608573,8.13734375 13.0052428,7.86322917 12.5240324,6.87958333 C11.525859,4.833125 14.3976609,4.44026042 13.3994875,3.30817708 C13.1202309,2.98953125 11.6765996,4.61640625 11.464983,2.44822917 C11.451455,2.29286458 11.5954316,2.0603125 11.7896551,1.81885417 C14.9242868,2.8975 17.1892611,5.93255208 17.1892611,9.5 L17.1892611,9.5 Z M8.19023986,1.47744792 C8.00084781,1.85546875 7.50127797,2.00885417 7.19786417,2.29286458 C6.53692457,2.90541667 6.2528365,2.8203125 5.89724326,3.408125 C5.53875117,3.9959375 4.38307315,4.84203125 4.38307315,5.26755208 C4.38307315,5.69307292 4.96670987,6.19380208 5.25852824,6.09682292 C5.5503466,5.99786458 6.32047652,6.00380208 6.77269835,6.16609375 C7.22588647,6.33036458 10.5547416,6.49463542 9.49375963,9.37630208 C9.15749212,10.2926562 7.68390602,10.1382812 7.29159391,11.6553125 C7.23265047,11.8779687 7.02876413,12.8289583 7.01620241,13.1396875 C6.99204526,13.620625 7.34860479,15.4335417 6.89541667,15.4335417 C6.44029598,15.4335417 5.21601165,13.8116146 5.21601165,13.5177083 C5.21601165,13.2238021 4.89906986,12.1936458 4.89906986,11.3109375 C4.89906986,10.4292187 3.43224776,10.4430729 3.43224776,9.27041667 C3.43224776,8.21354167 4.22750111,7.68708333 4.04873821,7.17942708 C3.87384045,6.67473958 2.47659094,6.65791667 1.8939205,6.59557292 C2.91141962,3.89302083 5.30490996,1.88713542 8.19023986,1.47744792 L8.19023986,1.47744792 Z M6.78815892,17.1890625 C7.26357162,16.9317708 7.31188592,16.5992708 7.74284946,16.5824479 C8.2356553,16.5596875 8.63666398,16.3855208 9.19227841,16.2598438 C9.68508426,16.15 10.5673033,15.6373958 11.343231,15.5720833 C11.9983729,15.5176563 13.2902972,15.6067188 13.6381602,16.2539063 C12.3868198,17.1059375 10.8861777,17.6027083 9.27634529,17.6027083 C8.40765421,17.6027083 7.57085056,17.4552604 6.78815892,17.1890625 L6.78815892,17.1890625 Z" id="website-icon"></path>
                    </g>
                </g>
            </g>
        </g>
    </g>
</svg>